<svg width="83" height="78" viewBox="0 0 83 78" fill="none" xmlns="http://www.w3.org/2000/svg">
<g clip-path="url(#clip0_292_2144)">
<path d="M58.3557 32.8821C59.2216 32.0627 60.0876 31.2432 61.0236 30.3576C60.8868 30.2459 60.7762 30.1556 60.6793 30.0768C60.6131 30.1003 60.5775 30.1025 60.5567 30.1211C59.7893 30.8179 59.0541 31.5547 58.2495 32.2055C57.164 33.0841 55.8328 33.3802 54.4867 33.5056C52.7904 33.6638 51.0831 33.701 49.3835 33.8335C48.2219 33.9238 47.0669 34.0913 45.9076 34.2155C45.7023 34.2374 45.4927 34.2188 45.2611 34.1055C45.8474 33.9287 46.4276 33.7256 47.0215 33.5795C50.8527 32.6369 54.496 31.1595 58.1498 29.7095C59.8188 29.0471 61.5217 28.4642 63.3243 28.3251C63.9746 28.2748 64.667 28.3574 65.2965 28.5348C66.2473 28.8035 66.5697 29.7472 66.2216 30.9405C65.5111 33.3742 64.0156 35.2408 62.0007 36.7193C61.8896 36.8008 61.635 36.7581 61.4785 36.6946C59.6792 35.9661 57.8904 35.2112 56.0873 34.492C55.6516 34.3179 55.1748 34.2478 54.75 34.1383C57.372 33.228 60.0646 33.3654 62.8076 33.7388C62.8284 33.557 62.8442 33.4185 62.8705 33.1936C61.3411 33.0879 59.8495 32.985 58.3551 32.8821H58.3557Z" fill="#3A3A3A"/>
<path d="M36.9364 34.412C36.1816 34.3326 35.4284 34.2379 34.6719 34.1777C33.1414 34.0562 31.6104 33.9385 30.0777 33.8466C28.5647 33.7557 27.0572 33.6528 25.6028 33.1738C24.7598 32.8963 24.0455 32.4195 23.4083 31.8152C22.8746 31.3094 22.3453 30.7998 21.7815 30.2606C21.6759 30.3203 21.539 30.3975 21.3332 30.5135C21.8061 30.9657 22.2386 31.3855 22.6781 31.7971C23.1106 32.2022 23.5507 32.5996 24.0198 33.0299C22.5369 33.1421 21.0825 33.2526 19.5963 33.3654C19.5876 33.5367 19.5805 33.6774 19.5679 33.9205C22.2643 33.4919 24.9131 33.4262 27.3922 34.2292C26.136 34.6862 24.7494 35.1603 23.3875 35.6956C22.5084 36.041 21.6676 36.4839 20.8006 36.8621C20.6632 36.9223 20.4289 36.9376 20.3205 36.8605C18.1085 35.2889 16.5556 33.2302 15.9748 30.5595C15.757 29.5562 16.3224 28.7427 17.5995 28.5391C19.252 28.2753 20.8241 28.6732 22.3437 29.2173C24.8469 30.1139 27.2948 31.1644 29.8018 32.0484C31.9278 32.7983 34.1053 33.4037 36.2593 34.0737C36.4925 34.1465 36.724 34.2264 36.9561 34.3031L36.9364 34.4115V34.412Z" fill="#3A3A3A"/>
<path d="M38.7115 35.0964C38.5375 35.9837 38.9267 36.8628 39.8189 37.9663C39.635 37.8935 39.4073 37.8667 39.2737 37.7403C38.3563 36.8699 37.9113 35.8326 38.0487 34.5288C38.1631 33.4455 38.5714 32.5806 39.5009 32.0069C41.241 30.9319 43.5975 31.9057 44.1088 33.9348C44.423 35.1818 44.2806 36.3789 43.4404 37.4272C43.1218 37.8246 42.7491 38.0474 42.2121 38.0588C41.2542 38.0791 40.2809 38.0818 39.6711 37.223C39.2797 36.6718 39.075 35.9881 38.7904 35.3619C38.7526 35.2787 38.7367 35.1851 38.711 35.0964H38.7115Z" fill="#3A3A3A"/>
<path d="M46.525 45.3627C46.4566 46.1181 46.4117 46.8324 46.3066 47.5369C46.2907 47.6431 45.9935 47.7789 45.826 47.7799C43.1925 47.7953 40.5591 47.7909 37.9256 47.7909C37.3886 47.7909 36.8516 47.7783 36.3152 47.7958C36.0278 47.8051 35.8838 47.7165 35.8565 47.4148C35.805 46.8521 35.7311 46.2911 35.66 45.73C35.6151 45.3753 35.7651 45.2664 36.1154 45.2691C38.4467 45.285 40.778 45.2822 43.1093 45.2877C44.1324 45.2899 45.1555 45.2965 46.178 45.3041C46.259 45.3047 46.3395 45.3304 46.525 45.3632V45.3627Z" fill="#3A3A3A"/>
<path d="M46.4407 42.9485H35.8542C35.8915 42.7772 35.8958 42.6179 35.9593 42.4871C36.2544 41.874 36.4224 41.0628 36.9134 40.7201C37.3705 40.401 38.1774 40.557 38.8309 40.551C40.8754 40.5313 42.9194 40.5313 44.9638 40.5334C45.0854 40.5334 45.272 40.5898 45.318 40.6774C45.6913 41.3939 46.0384 42.1241 46.4412 42.9485H46.4407Z" fill="#3A3A3A"/>
<path d="M21.0552 37.4035C21.4947 37.1621 21.8166 36.9311 22.1751 36.7969C24.1123 36.0722 26.0523 35.3546 28.0059 34.6764C28.4192 34.533 28.8943 34.5138 29.3393 34.5237C30.6777 34.5527 32.0166 34.6025 33.3527 34.6862C34.4344 34.7541 35.5122 34.8805 36.5905 34.9906C36.6644 34.9982 36.7301 35.0886 36.9195 35.2303C36.3842 35.29 35.984 35.3491 35.5822 35.3765C34.4656 35.4526 33.3489 35.5243 32.2317 35.5812C30.7132 35.6584 29.307 36.1363 27.9325 36.7433C27.1881 37.0723 26.4497 37.4292 25.6778 37.6777C24.3871 38.0937 23.08 37.9793 21.7881 37.6213C21.5872 37.5655 21.3885 37.5025 21.0557 37.4029L21.0552 37.4035Z" fill="#3A3A3A"/>
<path d="M61.1741 37.2455C59.0563 38.0321 57.0966 37.9363 55.1857 36.9428C53.8074 36.2263 52.371 35.6532 50.8214 35.4654C49.7113 35.3308 48.5886 35.3012 47.4714 35.2306C46.8047 35.1879 46.1374 35.1556 45.3158 35.1102C45.4948 34.9525 45.5709 34.8283 45.6623 34.8151C46.19 34.7401 46.7209 34.6772 47.2524 34.6378C48.3357 34.5573 49.4201 34.49 50.5045 34.4259C51.106 34.3904 51.7125 34.4068 52.3103 34.3405C53.4762 34.2108 54.5606 34.5354 55.6181 34.9279C57.3139 35.5574 58.9868 36.2504 60.6661 36.9248C60.826 36.9888 60.9628 37.1098 61.1746 37.2455H61.1741Z" fill="#3A3A3A"/>
<path d="M36.4426 50.1973H45.6644C45.4395 51.0857 44.9862 51.823 44.4525 52.5143C44.3934 52.5904 44.2067 52.5877 44.0792 52.5882C42.101 52.5926 40.1222 52.597 38.1439 52.5806C37.9824 52.5789 37.7547 52.4656 37.6726 52.3332C37.2582 51.6637 36.8822 50.9707 36.4426 50.1978V50.1973Z" fill="#3A3A3A"/>
<path d="M49.2045 36.0181C50.8921 36.0881 52.3705 36.5069 53.7916 37.1364C54.7325 37.5535 55.6707 37.9832 56.575 38.472C57.3277 38.8793 57.6134 39.4431 57.4037 40.0468C57.2976 40.3534 57.0726 40.6911 56.8038 40.8559C55.8897 41.4153 54.8546 41.3179 53.8408 41.2533C53.7625 41.2483 53.6514 41.1175 53.6251 41.0255C52.9749 38.7468 51.4646 37.2223 49.3982 36.1801C49.3588 36.1604 49.3282 36.1226 49.2045 36.0181Z" fill="#3A3A3A"/>
<path d="M32.9 36.1329C32.0625 36.7777 31.1703 37.3842 30.3765 38.0996C29.5741 38.8233 29.0853 39.7927 28.7596 40.8152C28.6172 41.2624 28.4492 41.4578 27.9494 41.4458C27.1667 41.4272 26.3834 41.5011 25.6493 41.1332C24.5852 40.6001 24.4204 39.4725 25.4194 38.8567C26.4731 38.2075 27.6281 37.7165 28.759 37.2003C30.0804 36.5965 31.4872 36.2933 32.8994 36.1323L32.9 36.1329Z" fill="#3A3A3A"/>
<path d="M43.2214 31.369C41.7791 30.5288 40.3674 30.4883 38.9595 31.3947C38.3782 30.6787 37.9895 29.937 38.2528 29.0333C38.5304 28.0809 39.3186 27.6763 40.2037 27.5603C40.8633 27.4738 41.5568 27.5504 42.2236 27.6418C43.1317 27.7661 43.7639 28.3376 43.9965 29.1975C44.2215 30.0301 43.8685 30.7565 43.2214 31.369Z" fill="#3A3A3A"/>
<path d="M53.0345 41.0683C50.3901 40.782 48.853 38.9472 47.2234 37.2328C47.8518 37.472 48.4808 37.7106 49.1092 37.9498C49.1349 37.9017 49.1606 37.853 49.1864 37.8048C48.9811 37.6553 48.7961 37.4555 48.5673 37.3647C47.6625 37.0045 46.745 36.6777 45.8309 36.3411C45.7696 36.3186 45.6831 36.3378 45.6388 36.3006C45.5287 36.2091 45.4362 36.0969 45.3372 35.9929C45.4548 35.9398 45.5725 35.8413 45.6902 35.8413C46.7149 35.844 47.7101 36.0378 48.6488 36.4385C50.5269 37.241 51.9945 38.4923 52.8123 40.4125C52.8938 40.6047 52.9475 40.8088 53.0339 41.0683H53.0345Z" fill="#3A3A3A"/>
<path d="M33.0079 38.1013C33.6396 37.8495 34.2718 37.5977 35.0212 37.2994C33.7633 39.2415 30.7445 41.2455 29.2753 41.1885C29.9053 38.1073 33.6746 35.7453 36.9255 36.1367C36.7597 36.2506 36.6091 36.4093 36.4258 36.4712C35.6862 36.7191 34.9226 36.8992 34.1968 37.1795C33.737 37.3574 33.3287 37.6678 32.8973 37.919C32.9345 37.9798 32.9712 38.0405 33.0084 38.1013H33.0079Z" fill="#3A3A3A"/>
<path d="M36.8445 39.5303C35.3441 41.3312 33.6073 42.7544 31.5053 43.7014C31.3416 41.9837 35.2795 39.5183 36.8445 39.5303Z" fill="#3A3A3A"/>
<path d="M45.4542 39.5449C47.3301 39.5548 50.5192 42.1018 50.6943 43.7138C48.6406 42.7165 46.7981 41.4547 45.4542 39.5449Z" fill="#3A3A3A"/>
<path d="M35.0474 43.2781C34.3922 44.2694 33.749 45.2689 33.073 46.2455C32.8869 46.5142 32.6219 46.7431 32.3537 46.9357C32.213 47.037 31.8687 47.1049 31.8222 47.0397C31.6815 46.8443 31.5075 46.5153 31.5847 46.3467C32.0653 45.2941 32.6526 44.3017 33.7359 43.7434C34.1409 43.5348 34.5728 43.3788 34.9927 43.1987C35.0113 43.225 35.0293 43.2518 35.048 43.2781H35.0474Z" fill="#3A3A3A"/>
<path d="M47.202 43.2818C48.9394 43.6628 49.9291 44.8161 50.6303 46.2776C50.823 46.68 50.5028 46.9208 50.2154 47.1688C48.7396 46.2442 48.137 44.665 47.2026 43.2812L47.202 43.2818Z" fill="#3A3A3A"/>
<path d="M34.0178 50.4043C33.5432 50.2779 33.1513 50.1733 32.7621 50.0699C33.2438 47.9991 33.7977 46.9783 34.7628 46.438C34.7414 47.8218 34.4655 49.112 34.0178 50.4043Z" fill="#3A3A3A"/>
<path d="M47.8125 29.315C47.6242 29.9653 47.5262 30.5116 47.3039 31.0015C47.1353 31.3737 46.8387 31.7049 46.5436 31.9994C46.2387 32.3037 45.8501 32.5227 45.5293 32.8128C45.1489 33.1566 44.8692 33.1122 44.5999 32.5955C44.942 32.3377 45.3093 32.0864 45.6426 31.7963C45.78 31.677 45.9191 31.4788 45.9295 31.3091C45.976 30.539 46.4703 29.9916 46.8803 29.4234C46.9919 29.269 47.4304 29.35 47.8125 29.3145V29.315Z" fill="#3A3A3A"/>
<path d="M47.4764 46.521C48.4053 46.8352 49.4426 48.8129 49.355 50.1283C49.0129 50.2071 48.6647 50.287 48.3161 50.3669C47.9044 49.8195 47.4047 47.532 47.4758 46.521H47.4764Z" fill="#3A3A3A"/>
<path d="M34.5679 29.4038C35.1048 29.1996 35.4502 29.3162 35.6922 29.8285C35.944 30.3622 36.3688 30.821 36.2938 31.4789C36.2845 31.5599 36.4284 31.676 36.5226 31.7482C36.8882 32.029 37.2626 32.2989 37.6392 32.577C37.4148 33.0532 37.1647 33.1424 36.7673 32.855C35.73 32.1046 34.7912 31.2912 34.6177 29.9134C34.6073 29.8318 34.5783 29.7525 34.57 29.6709C34.5618 29.5888 34.5684 29.5045 34.5684 29.4032L34.5679 29.4038Z" fill="#3A3A3A"/>
<path d="M47.2141 22.2676C47.5469 22.6299 47.5469 22.8122 47.1255 23.0224C46.1938 23.4872 45.272 23.9798 44.388 24.5288C43.58 25.0308 43.0403 25.796 42.6095 26.6401C42.5488 26.7594 42.3638 26.8158 42.2362 26.9012C42.2187 26.7403 42.136 26.5498 42.1941 26.4228C42.7141 25.2826 43.5434 24.4013 44.6015 23.7504C45.4466 23.231 46.3268 22.7684 47.2141 22.2676Z" fill="#3A3A3A"/>
<path d="M34.9544 22.2671C37.0755 23.3657 39.2519 24.3258 40.2071 26.7567C40.0434 26.8241 39.923 26.8733 39.8064 26.921C39.7752 26.9013 39.733 26.8909 39.7254 26.8684C39.3225 25.7315 38.5135 24.9115 37.5457 24.2727C36.8012 23.7812 35.972 23.4128 35.1646 23.0219C34.6856 22.7904 34.6719 22.8183 34.9544 22.2671Z" fill="#3A3A3A"/>
<path d="M27.9905 45.8911C27.6243 45.2682 27.6522 45.1894 28.2817 44.9814C29.1559 44.6924 29.7361 44.012 30.3684 43.4016C30.5857 43.192 30.8019 42.9807 31.0975 42.6938C30.9705 44.4625 29.7569 45.6563 27.9905 45.8911Z" fill="#3A3A3A"/>
<path d="M54.2251 45.9339C52.353 45.438 50.9775 44.0241 51.1351 42.6929C51.5834 43.1231 52.0044 43.5156 52.4116 43.9223C52.9114 44.4215 53.4445 44.8545 54.1441 45.0537C54.4895 45.1523 54.5075 45.4145 54.2251 45.9334V45.9339Z" fill="#3A3A3A"/>
<path d="M50.5981 47.4395C50.7437 47.3278 50.9019 47.2074 51.0896 47.064C52.0005 47.8911 52.959 48.7116 54.2699 48.8895C54.2103 49.6848 54.1298 49.7429 53.4237 49.5316C52.1817 49.1605 51.3732 48.5715 50.5975 47.4389L50.5981 47.4395Z" fill="#3A3A3A"/>
<path d="M31.0832 47.0542C31.2655 47.2283 31.3974 47.3547 31.5523 47.5025C30.7192 48.7079 29.5987 49.42 28.094 49.6598C28.0244 49.4359 27.95 49.1967 27.8591 48.9066C29.1646 48.6312 30.2019 47.9793 31.0827 47.0542H31.0832Z" fill="#3A3A3A"/>
<path d="M30.439 53.2374C30.7231 53.0228 31.0531 52.8428 31.2912 52.5789C31.8025 52.0129 32.2557 51.3949 32.7577 50.8202C32.8546 50.709 33.0664 50.6981 33.2252 50.6406C33.2481 50.7955 33.3319 50.9723 33.2848 51.1021C32.9192 52.1218 32.2601 52.9216 31.3684 53.5292C30.7844 53.9271 30.7805 53.9217 30.439 53.2374Z" fill="#3A3A3A"/>
<path d="M48.8705 50.7578C49.1639 50.5098 49.3763 50.5799 49.5898 50.8919C49.9188 51.373 50.2571 51.8531 50.6391 52.2915C50.8964 52.5866 51.2079 52.8619 51.5478 53.0508C51.8976 53.2445 51.6989 53.4115 51.6223 53.6124C51.5188 53.8844 51.359 53.8357 51.1526 53.7273C50.1328 53.1936 49.1453 51.9199 48.87 50.7578H48.8705Z" fill="#3A3A3A"/>
<path d="M35.106 28.6889C34.6435 28.8876 34.3632 28.8909 34.3293 28.3216C34.2816 27.518 34.1815 26.7177 34.0994 25.8715C34.3933 25.8479 34.5865 25.8326 34.8838 25.8091C34.9582 26.7714 35.031 27.7178 35.106 28.6889Z" fill="#3A3A3A"/>
<path d="M42.7375 54.5698C42.2296 54.9727 41.8201 55.328 41.3751 55.6301C41.2536 55.7128 40.9793 55.7051 40.8534 55.6214C40.4123 55.329 40.005 54.9858 39.4658 54.5698H42.737H42.7375Z" fill="#3A3A3A"/>
<path d="M47.1703 28.6941C47.2431 27.7717 47.3164 26.8461 47.3898 25.9216C48.0363 25.7907 48.1096 25.8395 48.0828 26.4728C48.0581 27.0563 47.9936 27.6382 47.9591 28.2217C47.9213 28.8534 47.8211 28.9196 47.1703 28.6946V28.6941Z" fill="#3A3A3A"/>
<path d="M8.99457 18.8608L8.87683 19.1079L15.2123 22.127L15.33 21.88L8.99457 18.8608Z" fill="#3A3A3A"/>
<path d="M17.5571 14.8732L16.125 21.6748L16.3928 21.7312L17.8249 14.9296L17.5571 14.8732Z" fill="#3A3A3A"/>
<path d="M21.5028 18.2704L15.7593 21.7119L15.9 21.9467L21.6434 18.5052L21.5028 18.2704Z" fill="#3A3A3A"/>
<path d="M16.4573 21.8834L16.3224 22.1216L19.3039 23.8105L19.4388 23.5724L16.4573 21.8834Z" fill="#3A3A3A"/>
<path d="M21.9319 21.8951L19.7528 23.5835L19.9204 23.7998L22.0995 22.1114L21.9319 21.8951Z" fill="#3A3A3A"/>
<path d="M15.1789 22.3458L11.6571 25.5718L11.842 25.7736L15.3637 22.5476L15.1789 22.3458Z" fill="#3A3A3A"/>
<path d="M8.70248 19.9282L8.45825 20.0518L11.0852 25.2455L11.3295 25.122L8.70248 19.9282Z" fill="#3A3A3A"/>
<path d="M10.7377 26.5649L7.10413 32.5908L7.3385 32.7322L10.9721 26.7063L10.7377 26.5649Z" fill="#3A3A3A"/>
<path d="M12.2361 26.6739L11.9766 26.7607L14.3198 33.7679L14.5793 33.6811L12.2361 26.6739Z" fill="#3A3A3A"/>
<path d="M7.92724 34.1399L7.67126 34.2368L10.8341 42.5938L11.0901 42.497L7.92724 34.1399Z" fill="#3A3A3A"/>
<path d="M8.67285 33.7231L15.3504 38.3119L19.5757 40.3755" fill="white"/>
<path d="M19.516 40.4981L15.2809 38.4306L15.2726 38.4246L8.59509 33.8359L8.75 33.6104L15.4193 38.1936L19.6359 40.2523L19.516 40.4981Z" fill="#3A3A3A"/>
<path d="M15.6004 39.0847L15.3536 39.2031L17.8321 44.3645L18.0788 44.2461L15.6004 39.0847Z" fill="#3A3A3A"/>
<path d="M14.6962 38.8474L11.8829 42.5835L12.1016 42.7481L14.9149 39.012L14.6962 38.8474Z" fill="#3A3A3A"/>
<path d="M14.9322 38.3373L6.22046 38.5518L6.22719 38.8254L14.9389 38.6109L14.9322 38.3373Z" fill="#3A3A3A"/>
<path d="M6.21733 43.431L4.61829 49.4917L4.88292 49.5615L6.48197 43.5008L6.21733 43.431Z" fill="#3A3A3A"/>
<path d="M7.20336 47.6722L5.37732 49.2935L5.55903 49.4981L7.38507 47.8769L7.20336 47.6722Z" fill="#3A3A3A"/>
<path d="M10.8612 44.0819L8.63062 46.5645L8.8342 46.7474L11.0648 44.2649L10.8612 44.0819Z" fill="#3A3A3A"/>
<path d="M11.6564 44.1399L11.3932 44.2148L12.6788 48.728L12.942 48.6531L11.6564 44.1399Z" fill="#3A3A3A"/>
<path d="M17.4014 45.1954L13.0966 48.7681L13.2713 48.9787L17.5762 45.406L17.4014 45.1954Z" fill="#3A3A3A"/>
<path d="M12.3122 43.1888L12.2468 43.4546L17.2137 44.6755L17.2791 44.4097L12.3122 43.1888Z" fill="#3A3A3A"/>
<path d="M12.7993 49.6813L5.45715 50.2114L5.47686 50.4844L12.819 49.9543L12.7993 49.6813Z" fill="#3A3A3A"/>
<path d="M12.3468 50.0527L10.1774 59.2588L10.4438 59.3216L12.6132 50.1155L12.3468 50.0527Z" fill="#3A3A3A"/>
<path d="M5.45694 50.9384L5.23682 51.1011L11.162 59.1202L11.3821 58.9575L5.45694 50.9384Z" fill="#3A3A3A"/>
<path d="M18.9781 45.4456L11.575 58.5254L11.8131 58.6602L19.2163 45.5804L18.9781 45.4456Z" fill="#3A3A3A"/>
<path d="M13.2887 49.5566L13.0823 49.7363L17.8529 55.2146L18.0593 55.0349L13.2887 49.5566Z" fill="#3A3A3A"/>
<path d="M11.274 59.3096L18.6145 54.7208L18.465 45.4175" fill="white"/>
<path d="M11.3468 59.4259L11.2018 59.1938L18.4765 54.6461L18.3282 45.4199L18.6019 45.4155L18.753 54.7961L18.6873 54.8371L11.3468 59.4259Z" fill="#3A3A3A"/>
<path d="M18.8978 55.4852L18.6322 55.5513L19.862 60.4985L20.1276 60.4325L18.8978 55.4852Z" fill="#3A3A3A"/>
<path d="M11.9463 59.3494L11.8877 59.6167L19.351 61.2522L19.4096 60.9848L11.9463 59.3494Z" fill="#3A3A3A"/>
<path d="M11.51 60.2463L11.2651 60.3687L13.2475 64.3359L13.4923 64.2136L11.51 60.2463Z" fill="#3A3A3A"/>
<path d="M22.3339 52.2031L22.0659 52.2588L23.6164 59.7128L23.8843 59.6571L22.3339 52.2031Z" fill="#3A3A3A"/>
<path d="M22.8623 52.5372L22.703 52.7598L28.7448 57.0837L28.9041 56.8611L22.8623 52.5372Z" fill="#3A3A3A"/>
<path d="M28.421 57.0806L24.2568 59.5679L24.3972 59.8028L28.5613 57.3156L28.421 57.0806Z" fill="#3A3A3A"/>
<path d="M18.7332 44.7341L18.4927 44.8647L22.3088 51.8903L22.5493 51.7597L18.7332 44.7341Z" fill="#3A3A3A"/>
<path d="M25.8475 47.9899L22.678 51.7378L22.887 51.9145L26.0564 48.1666L25.8475 47.9899Z" fill="#3A3A3A"/>
<path d="M34.7757 55.4134L25.2473 63.7666L25.4277 63.9724L34.9561 55.6192L34.7757 55.4134Z" fill="#3A3A3A"/>
<path d="M23.9378 64.726L20.1177 66.5366L20.2349 66.7839L24.055 64.9733L23.9378 64.726Z" fill="#3A3A3A"/>
<path d="M19.6826 66.8088L16.6709 68.4155L16.7997 68.657L19.8114 67.0503L19.6826 66.8088Z" fill="#3A3A3A"/>
<path d="M30.5857 62.812H30.312V65.8878H30.5857V62.812Z" fill="#3A3A3A"/>
<path d="M31.1664 66.3731L30.9651 66.5586L33.509 69.3192L33.7102 69.1337L31.1664 66.3731Z" fill="#3A3A3A"/>
<path d="M41.2855 75.557L41.3671 59.2876L30.6334 62.6037L37.4927 65.0264L40.8684 68.3808" fill="white"/>
<path d="M41.4224 75.5576L41.1487 75.5565L41.2292 59.4732L31.0691 62.6125L37.5677 64.9077L40.9653 68.284L40.7721 68.4783L37.4183 65.1452L30.1982 62.595L41.5045 59.1016L41.4224 75.5576Z" fill="#3A3A3A"/>
<path d="M30.4488 66.4707L26.205 72.3764L35.9999 73.654L41.1267 68.8737" fill="white"/>
<path d="M36.0465 73.7978L35.9824 73.7896L25.9603 72.4819L30.3378 66.3906L30.56 66.5505L26.4497 72.2701L35.9539 73.5099L41.0331 68.7734L41.2198 68.9737L36.0465 73.7978Z" fill="#3A3A3A"/>
<path d="M44.9551 65.4451L42.2551 68.4448L42.4586 68.6279L45.1586 65.6282L44.9551 65.4451Z" fill="#3A3A3A"/>
<path d="M42.4319 69.1149L42.281 69.3433L48.2611 73.2954L48.412 73.067L42.4319 69.1149Z" fill="#3A3A3A"/>
<path d="M45.5583 65.2983L45.4163 65.5322L48.9233 67.6612L49.0653 67.4272L45.5583 65.2983Z" fill="#3A3A3A"/>
<path d="M56.6894 63.9305L49.5903 67.686L49.7183 67.928L56.8174 64.1724L56.6894 63.9305Z" fill="#3A3A3A"/>
<path d="M56.62 64.609L55.5688 70.2969L55.838 70.3466L56.8891 64.6587L56.62 64.609Z" fill="#3A3A3A"/>
<path d="M57.5868 63.9432L57.4238 64.1631L62.9025 68.2245L63.0655 68.0046L57.5868 63.9432Z" fill="#3A3A3A"/>
<path d="M58.687 59.4662L58.4517 59.606L63.3882 67.9167L63.6235 67.7769L58.687 59.4662Z" fill="#3A3A3A"/>
<path d="M57.8643 59.6779L56.7643 63.4419L57.027 63.5187L58.127 59.7546L57.8643 59.6779Z" fill="#3A3A3A"/>
<path d="M47.5659 55.2694L47.3837 55.4736L56.3016 63.4304L56.4839 63.2262L47.5659 55.2694Z" fill="#3A3A3A"/>
<path d="M53.1174 56.793L52.9946 57.0376L57.8395 59.469L57.9623 59.2244L53.1174 56.793Z" fill="#3A3A3A"/>
<path d="M58.9253 52.1586L58.2465 58.8296L58.5187 58.8573L59.1975 52.1863L58.9253 52.1586Z" fill="#3A3A3A"/>
<path d="M63.8544 54.8057L58.6331 58.9604L58.8035 59.1746L64.0248 55.0199L63.8544 54.8057Z" fill="#3A3A3A"/>
<path d="M58.6296 51.9808L53.1909 56.6357L53.3689 56.8437L58.8075 52.1888L58.6296 51.9808Z" fill="#3A3A3A"/>
<path d="M64.1694 55.3735H63.8958V61.1501H64.1694V55.3735Z" fill="#3A3A3A"/>
<path d="M72.7384 56.0646L64.5383 61.0386L64.6803 61.2726L72.8804 56.2986L72.7384 56.0646Z" fill="#3A3A3A"/>
<path d="M64.7782 55.0032L73.1264 55.7273L68.2005 49.1494" fill="white"/>
<path d="M73.4192 55.8905L64.7667 55.1395L64.7903 54.8669L72.8335 55.5648L68.091 49.2316L68.31 49.0674L73.4192 55.8905Z" fill="#3A3A3A"/>
<path d="M71.6761 43.3939L71.4058 43.4365L73.2805 55.3266L73.5508 55.284L71.6761 43.3939Z" fill="#3A3A3A"/>
<path d="M70.8943 43.3434L68.3793 48.4121L68.6244 48.5338L71.1394 43.4651L70.8943 43.3434Z" fill="#3A3A3A"/>
<path d="M64.8819 44.908L64.6752 45.0874L67.6194 48.4791L67.826 48.2997L64.8819 44.908Z" fill="#3A3A3A"/>
<path d="M70.6098 42.815L65.2993 44.3247L65.3742 44.588L70.6847 43.0782L70.6098 42.815Z" fill="#3A3A3A"/>
<path d="M67.0386 38.9156L64.6588 43.6431L64.9033 43.7661L67.283 39.0386L67.0386 38.9156Z" fill="#3A3A3A"/>
<path d="M67.8215 38.7943L67.627 38.9868L70.6307 42.0211L70.8252 41.8286L67.8215 38.7943Z" fill="#3A3A3A"/>
<path d="M67.733 38.2436L67.7225 38.5171L75.5674 38.8171L75.5779 38.5436L67.733 38.2436Z" fill="#3A3A3A"/>
<path d="M74.1591 34.3494L71.5206 41.5361L71.7776 41.6305L74.416 34.4438L74.1591 34.3494Z" fill="#3A3A3A"/>
<path d="M68.8067 28.267L68.7269 33.9072L69.0006 33.9111L69.0803 28.2709L68.8067 28.267Z" fill="#3A3A3A"/>
<path d="M65.6182 22.5108L65.3915 22.6641L68.7457 27.6276L68.9725 27.4743L65.6182 22.5108Z" fill="#3A3A3A"/>
<path d="M67.8191 17.6511L65.8622 21.7319L66.109 21.8503L68.0659 17.7695L67.8191 17.6511Z" fill="#3A3A3A"/>
<path d="M59.7312 19.7321L59.4629 19.7861L60.3732 24.3049L60.6415 24.2508L59.7312 19.7321Z" fill="#3A3A3A"/>
<path d="M59.0131 19.3469L56.423 22.0049L56.619 22.1959L59.2091 19.538L59.0131 19.3469Z" fill="#3A3A3A"/>
<path d="M51.3548 16.324L51.144 16.4985L55.8584 22.1912L56.0692 22.0166L51.3548 16.324Z" fill="#3A3A3A"/>
<path d="M50.3299 16.1039L49.9198 24.1724L50.1931 24.1863L50.6033 16.1178L50.3299 16.1039Z" fill="#3A3A3A"/>
<path d="M56.2909 22.9517L52.1932 29.436L52.4246 29.5822L56.5222 23.0979L56.2909 22.9517Z" fill="#3A3A3A"/>
<path d="M51.7805 15.3654L59.7565 18.7313L57.8182 12.9897" fill="white"/>
<path d="M59.9831 18.9753L51.7274 15.4917L51.8342 15.2393L59.5293 18.487L57.6884 13.0334L57.9479 12.9458L59.9831 18.9753Z" fill="#3A3A3A"/>
<path d="M63.2039 9.80371L63.0873 16.6072L67.7691 17.1387" fill="white"/>
<path d="M67.7537 17.2742L62.9482 16.729L63.067 9.80078L63.3407 9.80571L63.2263 16.4849L67.7844 17.0022L67.7537 17.2742Z" fill="#3A3A3A"/>
<path d="M68.6888 17.6126L68.5106 17.8203L75.0612 23.4388L75.2394 23.2311L68.6888 17.6126Z" fill="#3A3A3A"/>
<path d="M66.0152 21.97L65.9688 22.2397L75.873 23.9452L75.9194 23.6754L66.0152 21.97Z" fill="#3A3A3A"/>
<path d="M60.1239 18.966L59.9823 19.2002L64.8285 22.1305L64.9701 21.8963L60.1239 18.966Z" fill="#3A3A3A"/>
<path d="M53.6685 6.96438L50.906 14.604L51.1634 14.6971L53.9259 7.05745L53.6685 6.96438Z" fill="#3A3A3A"/>
<path d="M49.4877 9.98207L49.2286 10.0703L51.1201 15.6233L51.3792 15.5351L49.4877 9.98207Z" fill="#3A3A3A"/>
<path d="M56.4659 12.2102L51.4071 14.522L51.5209 14.7709L56.5796 12.4591L56.4659 12.2102Z" fill="#3A3A3A"/>
<path d="M62.3945 9.20078L58.6859 11.1943L58.8155 11.4354L62.5241 9.44185L62.3945 9.20078Z" fill="#3A3A3A"/>
<path d="M54.4406 6.5583L54.3683 6.82227L63.0475 9.19989L63.1198 8.93593L54.4406 6.5583Z" fill="#3A3A3A"/>
<path d="M45.4499 2.63368L45.3365 2.88281L53.3117 6.51056L53.425 6.26143L45.4499 2.63368Z" fill="#3A3A3A"/>
<path d="M45.5042 3.31922L45.2766 3.47119L49.1338 9.24819L49.3614 9.09622L45.5042 3.31922Z" fill="#3A3A3A"/>
<path d="M49.8573 9.46404L45.022 9.57715L45.0284 9.85077L49.8637 9.73766L49.8573 9.46404Z" fill="#3A3A3A"/>
<path d="M44.6131 9.91583L41.1027 12.541L41.2666 12.7602L44.777 10.135L44.6131 9.91583Z" fill="#3A3A3A"/>
<path d="M41.64 12.5198L41.5748 12.7856L50.0255 14.8566L50.0906 14.5908L41.64 12.5198Z" fill="#3A3A3A"/>
<path d="M41.3217 12.9897H41.048V18.4121H41.3217V12.9897Z" fill="#3A3A3A"/>
<path d="M50.209 15.0266L41.8695 18.582L41.9768 18.8338L50.3164 15.2784L50.209 15.0266Z" fill="#3A3A3A"/>
<path d="M32.7094 15.2304L32.5959 15.4795L40.6916 19.1689L40.8051 18.9198L32.7094 15.2304Z" fill="#3A3A3A"/>
<path d="M40.9348 12.3949L32.731 14.7427L32.8063 15.0058L41.0101 12.658L40.9348 12.3949Z" fill="#3A3A3A"/>
<path d="M36.771 9.29954L32.0406 14.2168L32.2379 14.4065L36.9682 9.48928L36.771 9.29954Z" fill="#3A3A3A"/>
<path d="M30.7666 7.32628L30.4956 7.36475L31.5062 14.4833L31.7772 14.4448L30.7666 7.32628Z" fill="#3A3A3A"/>
<path d="M26.2392 10.5154L26.0616 10.7236L31.0474 14.9758L31.225 14.7676L26.2392 10.5154Z" fill="#3A3A3A"/>
<path d="M31.1642 16.1771L26.4309 21.2939L26.6318 21.4798L31.3651 16.3629L31.1642 16.1771Z" fill="#3A3A3A"/>
<path d="M32.0895 16.1008L31.8168 16.124L32.5163 24.3511L32.789 24.3279L32.0895 16.1008Z" fill="#3A3A3A"/>
<path d="M31.1039 15.3885L22.6232 17.4951L22.6891 17.7607L31.1699 15.6541L31.1039 15.3885Z" fill="#3A3A3A"/>
<path d="M23.8433 12.9499L22.326 18.1118L22.5886 18.189L24.1059 13.0271L23.8433 12.9499Z" fill="#3A3A3A"/>
<path d="M24.115 12.6142L17.849 14.0527L17.9102 14.3195L24.1763 12.8809L24.115 12.6142Z" fill="#3A3A3A"/>
<path d="M26.2708 22.2631L26.0302 22.3936L29.998 29.7136L30.2386 29.5832L26.2708 22.2631Z" fill="#3A3A3A"/>
<path d="M75.4418 24.4546L74.399 33.106L67.0143 37.9854L62.0763 40.7273" fill="white"/>
<path d="M62.1425 40.8469L62.01 40.6077L66.943 37.868L74.2709 33.0264L75.306 24.4385L75.5775 24.4708L74.5271 33.1851L67.081 38.1045L62.1425 40.8469Z" fill="#3A3A3A"/>
<path d="M8.20426 20.4498C9.15353 20.4498 9.92305 19.6803 9.92305 18.731C9.92305 17.7817 9.15353 17.0122 8.20426 17.0122C7.255 17.0122 6.48547 17.7817 6.48547 18.731C6.48547 19.6803 7.255 20.4498 8.20426 20.4498Z" fill="#3A3A3A"/>
<path d="M15.6251 23.0075C16.2735 23.0075 16.7992 22.4818 16.7992 21.8333C16.7992 21.1849 16.2735 20.6592 15.6251 20.6592C14.9766 20.6592 14.4509 21.1849 14.4509 21.8333C14.4509 22.4818 14.9766 23.0075 15.6251 23.0075Z" fill="#3A3A3A"/>
<path d="M11.3906 27.4948C12.2014 27.4948 12.8587 26.8375 12.8587 26.0267C12.8587 25.2159 12.2014 24.5586 11.3906 24.5586C10.5798 24.5586 9.92249 25.2159 9.92249 26.0267C9.92249 26.8375 10.5798 27.4948 11.3906 27.4948Z" fill="#3A3A3A"/>
<path d="M14.7099 27.0921C14.9629 27.0921 15.168 26.887 15.168 26.6339C15.168 26.3809 14.9629 26.1758 14.7099 26.1758C14.4568 26.1758 14.2517 26.3809 14.2517 26.6339C14.2517 26.887 14.4568 27.0921 14.7099 27.0921Z" fill="#3A3A3A"/>
<path d="M19.6085 25.1461C20.2569 25.1461 20.7826 24.6205 20.7826 23.972C20.7826 23.3235 20.2569 22.7979 19.6085 22.7979C18.96 22.7979 18.4343 23.3235 18.4343 23.972C18.4343 24.6205 18.96 25.1461 19.6085 25.1461Z" fill="#3A3A3A"/>
<path d="M22.18 27.8082C22.8285 27.8082 23.3541 27.2826 23.3541 26.6341C23.3541 25.9856 22.8285 25.46 22.18 25.46C21.5315 25.46 21.0059 25.9856 21.0059 26.6341C21.0059 27.2826 21.5315 27.8082 22.18 27.8082Z" fill="#3A3A3A"/>
<path d="M17.6915 26.2071C17.9227 26.2071 18.1102 26.0196 18.1102 25.7884C18.1102 25.5571 17.9227 25.3696 17.6915 25.3696C17.4602 25.3696 17.2727 25.5571 17.2727 25.7884C17.2727 26.0196 17.4602 26.2071 17.6915 26.2071Z" fill="#3A3A3A"/>
<path d="M26.0665 23.0078C26.8308 23.0078 27.4503 22.3883 27.4503 21.624C27.4503 20.8598 26.8308 20.2402 26.0665 20.2402C25.3023 20.2402 24.6827 20.8598 24.6827 21.624C24.6827 22.3883 25.3023 23.0078 26.0665 23.0078Z" fill="#3A3A3A"/>
<path d="M30.231 30.3828C30.5756 30.3828 30.855 30.1034 30.855 29.7588C30.855 29.4141 30.5756 29.1348 30.231 29.1348C29.8863 29.1348 29.6069 29.4141 29.6069 29.7588C29.6069 30.1034 29.8863 30.3828 30.231 30.3828Z" fill="#3A3A3A"/>
<path d="M32.6537 25.1826C32.9983 25.1826 33.2777 24.9032 33.2777 24.5586C33.2777 24.214 32.9983 23.9346 32.6537 23.9346C32.309 23.9346 32.0297 24.214 32.0297 24.5586C32.0297 24.9032 32.309 25.1826 32.6537 25.1826Z" fill="#3A3A3A"/>
<path d="M26.1502 27.4943C26.4441 27.4943 26.6823 27.2561 26.6823 26.9622C26.6823 26.6684 26.4441 26.4302 26.1502 26.4302C25.8564 26.4302 25.6182 26.6684 25.6182 26.9622C25.6182 27.2561 25.8564 27.4943 26.1502 27.4943Z" fill="#3A3A3A"/>
<path d="M29.607 23.1502C29.8014 23.1502 29.9589 22.9926 29.9589 22.7983C29.9589 22.6039 29.8014 22.4463 29.607 22.4463C29.4126 22.4463 29.255 22.6039 29.255 22.7983C29.255 22.9926 29.4126 23.1502 29.607 23.1502Z" fill="#3A3A3A"/>
<path d="M22.0158 22.2697C22.2598 22.2697 22.4576 22.0719 22.4576 21.828C22.4576 21.584 22.2598 21.3862 22.0158 21.3862C21.7719 21.3862 21.5741 21.584 21.5741 21.828C21.5741 22.0719 21.7719 22.2697 22.0158 22.2697Z" fill="#3A3A3A"/>
<path d="M22.3524 19.1553C23.0369 19.1553 23.5917 18.6005 23.5917 17.916C23.5917 17.2316 23.0369 16.6768 22.3524 16.6768C21.668 16.6768 21.1132 17.2316 21.1132 17.916C21.1132 18.6005 21.668 19.1553 22.3524 19.1553Z" fill="#3A3A3A"/>
<path d="M17.4934 15.4189C18.1751 15.4189 18.7277 14.8663 18.7277 14.1845C18.7277 13.5028 18.1751 12.9502 17.4934 12.9502C16.8117 12.9502 16.259 13.5028 16.259 14.1845C16.259 14.8663 16.8117 15.4189 17.4934 15.4189Z" fill="#3A3A3A"/>
<path d="M31.6416 16.7882C32.5473 16.7882 33.2815 16.054 33.2815 15.1483C33.2815 14.2425 32.5473 13.5083 31.6416 13.5083C30.7358 13.5083 30.0016 14.2425 30.0016 15.1483C30.0016 16.054 30.7358 16.7882 31.6416 16.7882Z" fill="#3A3A3A"/>
<path d="M37.3623 10.3677C38.1616 10.3677 38.8096 9.71975 38.8096 8.92043C38.8096 8.12112 38.1616 7.47314 37.3623 7.47314C36.563 7.47314 35.915 8.12112 35.915 8.92043C35.915 9.71975 36.563 10.3677 37.3623 10.3677Z" fill="#3A3A3A"/>
<path d="M32.7692 9.71757C32.9473 9.71757 33.0916 9.57323 33.0916 9.39516C33.0916 9.2171 32.9473 9.07275 32.7692 9.07275C32.5911 9.07275 32.4468 9.2171 32.4468 9.39516C32.4468 9.57323 32.5911 9.71757 32.7692 9.71757Z" fill="#3A3A3A"/>
<path d="M37.2786 5.04435C37.6293 5.04435 37.9136 4.76006 37.9136 4.40938C37.9136 4.0587 37.6293 3.77441 37.2786 3.77441C36.928 3.77441 36.6437 4.0587 36.6437 4.40938C36.6437 4.76006 36.928 5.04435 37.2786 5.04435Z" fill="#3A3A3A"/>
<path d="M34.3435 3.17179C34.6941 3.17179 34.9784 2.88751 34.9784 2.53682C34.9784 2.18614 34.6941 1.90186 34.3435 1.90186C33.9928 1.90186 33.7085 2.18614 33.7085 2.53682C33.7085 2.88751 33.9928 3.17179 34.3435 3.17179Z" fill="#3A3A3A"/>
<path d="M38.1746 1.26993C38.5253 1.26993 38.8096 0.98565 38.8096 0.634967C38.8096 0.284285 38.5253 0 38.1746 0C37.824 0 37.5397 0.284285 37.5397 0.634967C37.5397 0.98565 37.824 1.26993 38.1746 1.26993Z" fill="#3A3A3A"/>
<path d="M29.468 2.84904C29.8187 2.84904 30.1029 2.56475 30.1029 2.21407C30.1029 1.86339 29.8187 1.5791 29.468 1.5791C29.1173 1.5791 28.833 1.86339 28.833 2.21407C28.833 2.56475 29.1173 2.84904 29.468 2.84904Z" fill="#3A3A3A"/>
<path d="M22.7033 5.19572C23.054 5.19572 23.3383 4.91143 23.3383 4.56075C23.3383 4.21007 23.054 3.92578 22.7033 3.92578C22.3526 3.92578 22.0684 4.21007 22.0684 4.56075C22.0684 4.91143 22.3526 5.19572 22.7033 5.19572Z" fill="#3A3A3A"/>
<path d="M17.4627 10.6098C17.8134 10.6098 18.0977 10.3255 18.0977 9.97481C18.0977 9.62413 17.8134 9.33984 17.4627 9.33984C17.112 9.33984 16.8278 9.62413 16.8278 9.97481C16.8278 10.3255 17.112 10.6098 17.4627 10.6098Z" fill="#3A3A3A"/>
<path d="M23.975 13.488C24.3513 13.488 24.6564 13.1829 24.6564 12.8065C24.6564 12.4301 24.3513 12.125 23.975 12.125C23.5986 12.125 23.2935 12.4301 23.2935 12.8065C23.2935 13.1829 23.5986 13.488 23.975 13.488Z" fill="#3A3A3A"/>
<path d="M13.3814 11.8563C13.5534 11.8563 13.6929 11.7169 13.6929 11.5449C13.6929 11.3728 13.5534 11.2334 13.3814 11.2334C13.2094 11.2334 13.0699 11.3728 13.0699 11.5449C13.0699 11.7169 13.2094 11.8563 13.3814 11.8563Z" fill="#3A3A3A"/>
<path d="M12.6622 14.722C12.8342 14.722 12.9736 14.5826 12.9736 14.4106C12.9736 14.2386 12.8342 14.0991 12.6622 14.0991C12.4902 14.0991 12.3507 14.2386 12.3507 14.4106C12.3507 14.5826 12.4902 14.722 12.6622 14.722Z" fill="#3A3A3A"/>
<path d="M13.3118 18.5143C13.5818 18.5143 13.8006 18.2954 13.8006 18.0254C13.8006 17.7555 13.5818 17.5366 13.3118 17.5366C13.0418 17.5366 12.823 17.7555 12.823 18.0254C12.823 18.2954 13.0418 18.5143 13.3118 18.5143Z" fill="#3A3A3A"/>
<path d="M6.84563 24.1793C7.11559 24.1793 7.33444 23.9604 7.33444 23.6905C7.33444 23.4205 7.11559 23.2017 6.84563 23.2017C6.57566 23.2017 6.35681 23.4205 6.35681 23.6905C6.35681 23.9604 6.57566 24.1793 6.84563 24.1793Z" fill="#3A3A3A"/>
<path d="M7.95847 26.2941C8.1063 26.2941 8.22614 26.1743 8.22614 26.0265C8.22614 25.8786 8.1063 25.7588 7.95847 25.7588C7.81064 25.7588 7.6908 25.8786 7.6908 26.0265C7.6908 26.1743 7.81064 26.2941 7.95847 26.2941Z" fill="#3A3A3A"/>
<path d="M5.22483 28.112C5.6399 28.112 5.97639 27.7755 5.97639 27.3604C5.97639 26.9454 5.6399 26.6089 5.22483 26.6089C4.80975 26.6089 4.47327 26.9454 4.47327 27.3604C4.47327 27.7755 4.80975 28.112 5.22483 28.112Z" fill="#3A3A3A"/>
<path d="M3.65923 24.1371C3.82369 24.1371 3.95701 24.0037 3.95701 23.8393C3.95701 23.6748 3.82369 23.5415 3.65923 23.5415C3.49477 23.5415 3.36145 23.6748 3.36145 23.8393C3.36145 24.0037 3.49477 24.1371 3.65923 24.1371Z" fill="#3A3A3A"/>
<path d="M3.0862 24.6558C3.18868 24.6558 3.27176 24.5727 3.27176 24.4702C3.27176 24.3677 3.18868 24.2847 3.0862 24.2847C2.98371 24.2847 2.90063 24.3677 2.90063 24.4702C2.90063 24.5727 2.98371 24.6558 3.0862 24.6558Z" fill="#3A3A3A"/>
<path d="M25.876 5.84194C26.0275 5.84194 26.1503 5.71916 26.1503 5.5677C26.1503 5.41624 26.0275 5.29346 25.876 5.29346C25.7246 5.29346 25.6018 5.41624 25.6018 5.5677C25.6018 5.71916 25.7246 5.84194 25.876 5.84194Z" fill="#3A3A3A"/>
<path d="M30.5326 7.86523C31.2881 7.86523 31.9005 7.25279 31.9005 6.49731C31.9005 5.74183 31.2881 5.12939 30.5326 5.12939C29.7771 5.12939 29.1647 5.74183 29.1647 6.49731C29.1647 7.25279 29.7771 7.86523 30.5326 7.86523Z" fill="#3A3A3A"/>
<path d="M41.1848 20.0023C41.9012 20.0023 42.4821 19.4215 42.4821 18.705C42.4821 17.9885 41.9012 17.4077 41.1848 17.4077C40.4683 17.4077 39.8875 17.9885 39.8875 18.705C39.8875 19.4215 40.4683 20.0023 41.1848 20.0023Z" fill="#3A3A3A"/>
<path d="M36.031 20.148C36.3784 20.148 36.66 19.8664 36.66 19.5191C36.66 19.1717 36.3784 18.8901 36.031 18.8901C35.6837 18.8901 35.4021 19.1717 35.4021 19.5191C35.4021 19.8664 35.6837 20.148 36.031 20.148Z" fill="#3A3A3A"/>
<path d="M41.2991 13.4253C41.7263 13.4253 42.0725 13.079 42.0725 12.6519C42.0725 12.2247 41.7263 11.8784 41.2991 11.8784C40.8719 11.8784 40.5256 12.2247 40.5256 12.6519C40.5256 13.079 40.8719 13.4253 41.2991 13.4253Z" fill="#3A3A3A"/>
<path d="M45.0258 10.6194C45.4759 10.6194 45.8408 10.2545 45.8408 9.80431C45.8408 9.35417 45.4759 8.98926 45.0258 8.98926C44.5756 8.98926 44.2107 9.35417 44.2107 9.80431C44.2107 10.2545 44.5756 10.6194 45.0258 10.6194Z" fill="#3A3A3A"/>
<path d="M49.5028 10.6721C50.0327 10.6721 50.4623 10.2425 50.4623 9.7125C50.4623 9.18254 50.0327 8.75293 49.5028 8.75293C48.9728 8.75293 48.5432 9.18254 48.5432 9.7125C48.5432 10.2425 48.9728 10.6721 49.5028 10.6721Z" fill="#3A3A3A"/>
<path d="M50.9424 16.6064C51.7477 16.6064 52.4006 15.9535 52.4006 15.1482C52.4006 14.3428 51.7477 13.6899 50.9424 13.6899C50.137 13.6899 49.4841 14.3428 49.4841 15.1482C49.4841 15.9535 50.137 16.6064 50.9424 16.6064Z" fill="#3A3A3A"/>
<path d="M44.6951 4.17039C45.6715 4.17039 46.4631 3.3788 46.4631 2.40233C46.4631 1.42586 45.6715 0.634277 44.6951 0.634277C43.7186 0.634277 42.927 1.42586 42.927 2.40233C42.927 3.3788 43.7186 4.17039 44.6951 4.17039Z" fill="#3A3A3A"/>
<path d="M53.877 7.90139C54.6113 7.90139 55.2066 7.3061 55.2066 6.57179C55.2066 5.83747 54.6113 5.24219 53.877 5.24219C53.1426 5.24219 52.5474 5.83747 52.5474 6.57179C52.5474 7.3061 53.1426 7.90139 53.877 7.90139Z" fill="#3A3A3A"/>
<path d="M57.5817 4.379C57.8804 4.379 58.1225 4.13687 58.1225 3.83818C58.1225 3.5395 57.8804 3.29736 57.5817 3.29736C57.283 3.29736 57.0409 3.5395 57.0409 3.83818C57.0409 4.13687 57.283 4.379 57.5817 4.379Z" fill="#3A3A3A"/>
<path d="M51.5724 3.83749C51.8711 3.83749 52.1132 3.59536 52.1132 3.29668C52.1132 2.99799 51.8711 2.75586 51.5724 2.75586C51.2737 2.75586 51.0316 2.99799 51.0316 3.29668C51.0316 3.59536 51.2737 3.83749 51.5724 3.83749Z" fill="#3A3A3A"/>
<path d="M44.8167 6.38314C45.0111 6.38314 45.1687 6.22556 45.1687 6.03117C45.1687 5.83678 45.0111 5.6792 44.8167 5.6792C44.6223 5.6792 44.4647 5.83678 44.4647 6.03117C44.4647 6.22556 44.6223 6.38314 44.8167 6.38314Z" fill="#3A3A3A"/>
<path d="M42.1333 8.75228C42.3277 8.75228 42.4853 8.5947 42.4853 8.40031C42.4853 8.20592 42.3277 8.04834 42.1333 8.04834C41.939 8.04834 41.7814 8.20592 41.7814 8.40031C41.7814 8.5947 41.939 8.75228 42.1333 8.75228Z" fill="#3A3A3A"/>
<path d="M63.2826 10.7135C64.1908 10.7135 64.927 9.9773 64.927 9.06915C64.927 8.161 64.1908 7.4248 63.2826 7.4248C62.3745 7.4248 61.6383 8.161 61.6383 9.06915C61.6383 9.9773 62.3745 10.7135 63.2826 10.7135Z" fill="#3A3A3A"/>
<path d="M63.0873 17.4219C63.6457 17.4219 64.0983 16.9693 64.0983 16.4109C64.0983 15.8526 63.6457 15.3999 63.0873 15.3999C62.5289 15.3999 62.0763 15.8526 62.0763 16.4109C62.0763 16.9693 62.5289 17.4219 63.0873 17.4219Z" fill="#3A3A3A"/>
<path d="M68.2304 18.3725C68.9122 18.3725 69.4648 17.8199 69.4648 17.1382C69.4648 16.4564 68.9122 15.9038 68.2304 15.9038C67.5487 15.9038 66.9961 16.4564 66.9961 17.1382C66.9961 17.8199 67.5487 18.3725 68.2304 18.3725Z" fill="#3A3A3A"/>
<path d="M70.322 15.3655C70.7685 15.3655 71.1305 15.0035 71.1305 14.557C71.1305 14.1105 70.7685 13.7485 70.322 13.7485C69.8755 13.7485 69.5135 14.1105 69.5135 14.557C69.5135 15.0035 69.8755 15.3655 70.322 15.3655Z" fill="#3A3A3A"/>
<path d="M73.6305 19.2858C73.8082 19.2858 73.9523 19.1417 73.9523 18.964C73.9523 18.7862 73.8082 18.6421 73.6305 18.6421C73.4527 18.6421 73.3086 18.7862 73.3086 18.964C73.3086 19.1417 73.4527 19.2858 73.6305 19.2858Z" fill="#3A3A3A"/>
<path d="M68.5972 10.8521C68.7998 10.8521 68.964 10.6879 68.964 10.4854C68.964 10.2829 68.7998 10.1187 68.5972 10.1187C68.3947 10.1187 68.2305 10.2829 68.2305 10.4854C68.2305 10.6879 68.3947 10.8521 68.5972 10.8521Z" fill="#3A3A3A"/>
<path d="M65.603 23.2358C66.2847 23.2358 66.8374 22.6832 66.8374 22.0014C66.8374 21.3197 66.2847 20.7671 65.603 20.7671C64.9213 20.7671 64.3687 21.3197 64.3687 22.0014C64.3687 22.6832 64.9213 23.2358 65.603 23.2358Z" fill="#3A3A3A"/>
<path d="M69.0872 29.0381C69.6392 29.0381 70.0867 28.5906 70.0867 28.0386C70.0867 27.4866 69.6392 27.0391 69.0872 27.0391C68.5351 27.0391 68.0876 27.4866 68.0876 28.0386C68.0876 28.5906 68.5351 29.0381 69.0872 29.0381Z" fill="#3A3A3A"/>
<path d="M68.9383 34.8053C69.3307 34.8053 69.6488 34.4872 69.6488 34.0948C69.6488 33.7024 69.3307 33.3843 68.9383 33.3843C68.5459 33.3843 68.2278 33.7024 68.2278 34.0948C68.2278 34.4872 68.5459 34.8053 68.9383 34.8053Z" fill="#3A3A3A"/>
<path d="M71.0812 32.0631C71.3588 32.0631 71.5837 31.8381 71.5837 31.5606C71.5837 31.2831 71.3588 31.0581 71.0812 31.0581C70.8037 31.0581 70.5787 31.2831 70.5787 31.5606C70.5787 31.8381 70.8037 32.0631 71.0812 32.0631Z" fill="#3A3A3A"/>
<path d="M72.6655 28.8168C72.8175 28.8168 72.9408 28.6935 72.9408 28.5414C72.9408 28.3894 72.8175 28.2661 72.6655 28.2661C72.5134 28.2661 72.3901 28.3894 72.3901 28.5414C72.3901 28.6935 72.5134 28.8168 72.6655 28.8168Z" fill="#3A3A3A"/>
<path d="M75.4418 25.1963C76.3309 25.1963 77.0516 24.4755 77.0516 23.5864C77.0516 22.6973 76.3309 21.9766 75.4418 21.9766C74.5527 21.9766 73.8319 22.6973 73.8319 23.5864C73.8319 24.4755 74.5527 25.1963 75.4418 25.1963Z" fill="#3A3A3A"/>
<path d="M74.5507 34.9941C75.4398 34.9941 76.1605 34.2734 76.1605 33.3843C76.1605 32.4952 75.4398 31.7744 74.5507 31.7744C73.6616 31.7744 72.9408 32.4952 72.9408 33.3843C72.9408 34.2734 73.6616 34.9941 74.5507 34.9941Z" fill="#3A3A3A"/>
<path d="M67.1571 39.3987C67.8645 39.3987 68.438 38.8252 68.438 38.1178C68.438 37.4104 67.8645 36.8369 67.1571 36.8369C66.4497 36.8369 65.8762 37.4104 65.8762 38.1178C65.8762 38.8252 66.4497 39.3987 67.1571 39.3987Z" fill="#3A3A3A"/>
<path d="M61.8645 41.5776C62.2626 41.5776 62.5854 41.2548 62.5854 40.8567C62.5854 40.4585 62.2626 40.1357 61.8645 40.1357C61.4663 40.1357 61.1436 40.4585 61.1436 40.8567C61.1436 41.2548 61.4663 41.5776 61.8645 41.5776Z" fill="#3A3A3A"/>
<path d="M64.4732 45.9864C65.2477 45.9864 65.8756 45.3586 65.8756 44.584C65.8756 43.8095 65.2477 43.1816 64.4732 43.1816C63.6987 43.1816 63.0708 43.8095 63.0708 44.584C63.0708 45.3586 63.6987 45.9864 64.4732 45.9864Z" fill="#3A3A3A"/>
<path d="M68.2004 50.4586C68.9749 50.4586 69.6028 49.8307 69.6028 49.0562C69.6028 48.2817 68.9749 47.6538 68.2004 47.6538C67.4258 47.6538 66.798 48.2817 66.798 49.0562C66.798 49.8307 67.4258 50.4586 68.2004 50.4586Z" fill="#3A3A3A"/>
<path d="M74.399 46.8009C74.7276 46.8009 74.994 46.5345 74.994 46.2058C74.994 45.8772 74.7276 45.6108 74.399 45.6108C74.0703 45.6108 73.804 45.8772 73.804 46.2058C73.804 46.5345 74.0703 46.8009 74.399 46.8009Z" fill="#3A3A3A"/>
<path d="M76.5792 49.6448C77.0581 49.6448 77.4463 49.2566 77.4463 48.7777C77.4463 48.2988 77.0581 47.9106 76.5792 47.9106C76.1004 47.9106 75.7122 48.2988 75.7122 48.7777C75.7122 49.2566 76.1004 49.6448 76.5792 49.6448Z" fill="#3A3A3A"/>
<path d="M80.2406 50.1905C80.6191 50.1905 80.926 49.8836 80.926 49.5052C80.926 49.1267 80.6191 48.8198 80.2406 48.8198C79.8621 48.8198 79.5553 49.1267 79.5553 49.5052C79.5553 49.8836 79.8621 50.1905 80.2406 50.1905Z" fill="#3A3A3A"/>
<path d="M80.66 46.5792C80.9874 46.5792 81.2528 46.3138 81.2528 45.9864C81.2528 45.659 80.9874 45.3936 80.66 45.3936C80.3326 45.3936 80.0671 45.659 80.0671 45.9864C80.0671 46.3138 80.3326 46.5792 80.66 46.5792Z" fill="#3A3A3A"/>
<path d="M81.6108 43.2813C81.9382 43.2813 82.2036 43.0159 82.2036 42.6885C82.2036 42.3611 81.9382 42.0957 81.6108 42.0957C81.2834 42.0957 81.0179 42.3611 81.0179 42.6885C81.0179 43.0159 81.2834 43.2813 81.6108 43.2813Z" fill="#3A3A3A"/>
<path d="M81.6108 39.5636C81.9382 39.5636 82.2036 39.2982 82.2036 38.9707C82.2036 38.6433 81.9382 38.3779 81.6108 38.3779C81.2834 38.3779 81.0179 38.6433 81.0179 38.9707C81.0179 39.2982 81.2834 39.5636 81.6108 39.5636Z" fill="#3A3A3A"/>
<path d="M81.1214 35.9854C81.4488 35.9854 81.7142 35.72 81.7142 35.3926C81.7142 35.0652 81.4488 34.7998 81.1214 34.7998C80.794 34.7998 80.5286 35.0652 80.5286 35.3926C80.5286 35.72 80.794 35.9854 81.1214 35.9854Z" fill="#3A3A3A"/>
<path d="M79.2291 30.8585C79.5565 30.8585 79.8219 30.5931 79.8219 30.2657C79.8219 29.9383 79.5565 29.6729 79.2291 29.6729C78.9016 29.6729 78.6362 29.9383 78.6362 30.2657C78.6362 30.5931 78.9016 30.8585 79.2291 30.8585Z" fill="#3A3A3A"/>
<path d="M78.5767 26.9339C78.7448 26.9339 78.881 26.7976 78.881 26.6295C78.881 26.4615 78.7448 26.3252 78.5767 26.3252C78.4086 26.3252 78.2723 26.4615 78.2723 26.6295C78.2723 26.7976 78.4086 26.9339 78.5767 26.9339Z" fill="#3A3A3A"/>
<path d="M81.1215 32.6644C81.2896 32.6644 81.4258 32.5281 81.4258 32.36C81.4258 32.1919 81.2896 32.0557 81.1215 32.0557C80.9534 32.0557 80.8171 32.1919 80.8171 32.36C80.8171 32.5281 80.9534 32.6644 81.1215 32.6644Z" fill="#3A3A3A"/>
<path d="M75.5671 39.2701C75.8945 39.2701 76.1599 39.0047 76.1599 38.6773C76.1599 38.3499 75.8945 38.0845 75.5671 38.0845C75.2397 38.0845 74.9742 38.3499 74.9742 38.6773C74.9742 39.0047 75.2397 39.2701 75.5671 39.2701Z" fill="#3A3A3A"/>
<path d="M78.0412 36.7739C78.2172 36.7739 78.3598 36.6312 78.3598 36.4553C78.3598 36.2794 78.2172 36.1367 78.0412 36.1367C77.8653 36.1367 77.7227 36.2794 77.7227 36.4553C77.7227 36.6312 77.8653 36.7739 78.0412 36.7739Z" fill="#3A3A3A"/>
<path d="M79.2291 39.7924C79.4051 39.7924 79.5477 39.6498 79.5477 39.4739C79.5477 39.2979 79.4051 39.1553 79.2291 39.1553C79.0532 39.1553 78.9105 39.2979 78.9105 39.4739C78.9105 39.6498 79.0532 39.7924 79.2291 39.7924Z" fill="#3A3A3A"/>
<path d="M77.3281 42.7324C77.504 42.7324 77.6467 42.5897 77.6467 42.4138C77.6467 42.2378 77.504 42.0952 77.3281 42.0952C77.1522 42.0952 77.0095 42.2378 77.0095 42.4138C77.0095 42.5897 77.1522 42.7324 77.3281 42.7324Z" fill="#3A3A3A"/>
<path d="M76.5792 52.5783C76.7434 52.5783 76.8764 52.4453 76.8764 52.2811C76.8764 52.117 76.7434 51.9839 76.5792 51.9839C76.4151 51.9839 76.282 52.117 76.282 52.2811C76.282 52.4453 76.4151 52.5783 76.5792 52.5783Z" fill="#3A3A3A"/>
<path d="M78.0976 55.5974C78.2618 55.5974 78.3949 55.4643 78.3949 55.3002C78.3949 55.136 78.2618 55.0029 78.0976 55.0029C77.9335 55.0029 77.8004 55.136 77.8004 55.3002C77.8004 55.4643 77.9335 55.5974 78.0976 55.5974Z" fill="#3A3A3A"/>
<path d="M59.405 53.0304C60.1795 53.0304 60.8074 52.4025 60.8074 51.628C60.8074 50.8535 60.1795 50.2256 59.405 50.2256C58.6304 50.2256 58.0026 50.8535 58.0026 51.628C58.0026 52.4025 58.6304 53.0304 59.405 53.0304Z" fill="#3A3A3A"/>
<path d="M56.3889 48.6375C56.7018 48.6375 56.9555 48.3838 56.9555 48.0709C56.9555 47.758 56.7018 47.5044 56.3889 47.5044C56.076 47.5044 55.8224 47.758 55.8224 48.0709C55.8224 48.3838 56.076 48.6375 56.3889 48.6375Z" fill="#3A3A3A"/>
<path d="M54.362 52.6443C54.6748 52.6443 54.9285 52.3907 54.9285 52.0778C54.9285 51.7649 54.6748 51.5112 54.362 51.5112C54.0491 51.5112 53.7954 51.7649 53.7954 52.0778C53.7954 52.3907 54.0491 52.6443 54.362 52.6443Z" fill="#3A3A3A"/>
<path d="M59.8407 47.2962C60.0387 47.2962 60.1993 47.1357 60.1993 46.9376C60.1993 46.7396 60.0387 46.5791 59.8407 46.5791C59.6427 46.5791 59.4822 46.7396 59.4822 46.9376C59.4822 47.1357 59.6427 47.2962 59.8407 47.2962Z" fill="#3A3A3A"/>
<path d="M47.4752 55.8543C47.7881 55.8543 48.0418 55.6006 48.0418 55.2877C48.0418 54.9748 47.7881 54.7212 47.4752 54.7212C47.1623 54.7212 46.9087 54.9748 46.9087 55.2877C46.9087 55.6006 47.1623 55.8543 47.4752 55.8543Z" fill="#3A3A3A"/>
<path d="M35.0683 55.8543C35.3811 55.8543 35.6348 55.6006 35.6348 55.2877C35.6348 54.9748 35.3811 54.7212 35.0683 54.7212C34.7554 54.7212 34.5017 54.9748 34.5017 55.2877C34.5017 55.6006 34.7554 55.8543 35.0683 55.8543Z" fill="#3A3A3A"/>
<path d="M36.2013 59.2874C36.5142 59.2874 36.7679 59.0337 36.7679 58.7208C36.7679 58.4079 36.5142 58.1543 36.2013 58.1543C35.8884 58.1543 35.6348 58.4079 35.6348 58.7208C35.6348 59.0337 35.8884 59.2874 36.2013 59.2874Z" fill="#3A3A3A"/>
<path d="M64.1755 56.0764C64.924 56.0764 65.5308 55.4696 65.5308 54.721C65.5308 53.9725 64.924 53.3657 64.1755 53.3657C63.427 53.3657 62.8202 53.9725 62.8202 54.721C62.8202 55.4696 63.427 56.0764 64.1755 56.0764Z" fill="#3A3A3A"/>
<path d="M73.418 57.5074C74.3186 57.5074 75.0487 56.7773 75.0487 55.8768C75.0487 54.9762 74.3186 54.2461 73.418 54.2461C72.5174 54.2461 71.7874 54.9762 71.7874 55.8768C71.7874 56.7773 72.5174 57.5074 73.418 57.5074Z" fill="#3A3A3A"/>
<path d="M64.2871 62.259C64.8996 62.259 65.3961 61.7625 65.3961 61.15C65.3961 60.5375 64.8996 60.041 64.2871 60.041C63.6746 60.041 63.1781 60.5375 63.1781 61.15C63.1781 61.7625 63.6746 62.259 64.2871 62.259Z" fill="#3A3A3A"/>
<path d="M65.9993 63.5848C66.3999 63.5848 66.7246 63.2601 66.7246 62.8596C66.7246 62.459 66.3999 62.1343 65.9993 62.1343C65.5988 62.1343 65.274 62.459 65.274 62.8596C65.274 63.2601 65.5988 63.5848 65.9993 63.5848Z" fill="#3A3A3A"/>
<path d="M70.1918 63.7098C70.5924 63.7098 70.9171 63.3851 70.9171 62.9846C70.9171 62.584 70.5924 62.2593 70.1918 62.2593C69.7913 62.2593 69.4666 62.584 69.4666 62.9846C69.4666 63.3851 69.7913 63.7098 70.1918 63.7098Z" fill="#3A3A3A"/>
<path d="M71.4721 59.8553C71.6465 59.8553 71.7879 59.7139 71.7879 59.5395C71.7879 59.365 71.6465 59.2236 71.4721 59.2236C71.2977 59.2236 71.1562 59.365 71.1562 59.5395C71.1562 59.7139 71.2977 59.8553 71.4721 59.8553Z" fill="#3A3A3A"/>
<path d="M68.3039 67.4207C68.4783 67.4207 68.6197 67.2793 68.6197 67.1049C68.6197 66.9305 68.4783 66.7891 68.3039 66.7891C68.1294 66.7891 67.988 66.9305 67.988 67.1049C67.988 67.2793 68.1294 67.4207 68.3039 67.4207Z" fill="#3A3A3A"/>
<path d="M58.3797 60.7726C59.0768 60.7726 59.642 60.2075 59.642 59.5103C59.642 58.8132 59.0768 58.248 58.3797 58.248C57.6826 58.248 57.1174 58.8132 57.1174 59.5103C57.1174 60.2075 57.6826 60.7726 58.3797 60.7726Z" fill="#3A3A3A"/>
<path d="M52.9573 57.6834C53.4202 57.6834 53.7954 57.3082 53.7954 56.8454C53.7954 56.3825 53.4202 56.0073 52.9573 56.0073C52.4945 56.0073 52.1193 56.3825 52.1193 56.8454C52.1193 57.3082 52.4945 57.6834 52.9573 57.6834Z" fill="#3A3A3A"/>
<path d="M57.0009 65.2494C57.7625 65.2494 58.3798 64.6321 58.3798 63.8706C58.3798 63.109 57.7625 62.4917 57.0009 62.4917C56.2394 62.4917 55.6221 63.109 55.6221 63.8706C55.6221 64.6321 56.2394 65.2494 57.0009 65.2494Z" fill="#3A3A3A"/>
<path d="M63.5044 69.7688C64.4152 69.7688 65.1536 69.0304 65.1536 68.1195C65.1536 67.2086 64.4152 66.4702 63.5044 66.4702C62.5935 66.4702 61.8551 67.2086 61.8551 68.1195C61.8551 69.0304 62.5935 69.7688 63.5044 69.7688Z" fill="#3A3A3A"/>
<path d="M51.4481 63.5997C52.1888 63.5997 52.7892 62.9992 52.7892 62.2586C52.7892 61.5179 52.1888 60.9175 51.4481 60.9175C50.7075 60.9175 50.1071 61.5179 50.1071 62.2586C50.1071 62.9992 50.7075 63.5997 51.4481 63.5997Z" fill="#3A3A3A"/>
<path d="M49.3982 68.8734C49.9847 68.8734 50.4602 68.3979 50.4602 67.8114C50.4602 67.2249 49.9847 66.7495 49.3982 66.7495C48.8117 66.7495 48.3363 67.2249 48.3363 67.8114C48.3363 68.3979 48.8117 68.8734 49.3982 68.8734Z" fill="#3A3A3A"/>
<path d="M41.5438 70.1107C42.4214 70.1107 43.1328 69.3993 43.1328 68.5217C43.1328 67.6441 42.4214 66.9326 41.5438 66.9326C40.6662 66.9326 39.9547 67.6441 39.9547 68.5217C39.9547 69.3993 40.6662 70.1107 41.5438 70.1107Z" fill="#3A3A3A"/>
<path d="M48.9943 74.9416C49.8039 74.9416 50.4602 74.2853 50.4602 73.4757C50.4602 72.6661 49.8039 72.0098 48.9943 72.0098C48.1847 72.0098 47.5284 72.6661 47.5284 73.4757C47.5284 74.2853 48.1847 74.9416 48.9943 74.9416Z" fill="#3A3A3A"/>
<path d="M55.702 71.2992C56.1787 71.2992 56.5652 70.9127 56.5652 70.436C56.5652 69.9592 56.1787 69.5728 55.702 69.5728C55.2252 69.5728 54.8387 69.9592 54.8387 70.436C54.8387 70.9127 55.2252 71.2992 55.702 71.2992Z" fill="#3A3A3A"/>
<path d="M58.2544 73.6393C58.6032 73.6393 58.8861 73.3565 58.8861 73.0077C58.8861 72.6588 58.6032 72.376 58.2544 72.376C57.9055 72.376 57.6227 72.6588 57.6227 73.0077C57.6227 73.3565 57.9055 73.6393 58.2544 73.6393Z" fill="#3A3A3A"/>
<path d="M59.4007 69.2305C59.5981 69.2305 59.7581 69.0705 59.7581 68.8731C59.7581 68.6757 59.5981 68.5156 59.4007 68.5156C59.2032 68.5156 59.0432 68.6757 59.0432 68.8731C59.0432 69.0705 59.2032 69.2305 59.4007 69.2305Z" fill="#3A3A3A"/>
<path d="M54.2574 75.1454C54.4282 75.1454 54.5667 75.0069 54.5667 74.8361C54.5667 74.6653 54.4282 74.5269 54.2574 74.5269C54.0866 74.5269 53.9481 74.6653 53.9481 74.8361C53.9481 75.0069 54.0866 75.1454 54.2574 75.1454Z" fill="#3A3A3A"/>
<path d="M52.9995 72.2479C53.1703 72.2479 53.3087 72.1095 53.3087 71.9387C53.3087 71.7679 53.1703 71.6294 52.9995 71.6294C52.8286 71.6294 52.6902 71.7679 52.6902 71.9387C52.6902 72.1095 52.8286 72.2479 52.9995 72.2479Z" fill="#3A3A3A"/>
<path d="M45.0564 66.47C45.6429 66.47 46.1184 65.9946 46.1184 65.4081C46.1184 64.8216 45.6429 64.3462 45.0564 64.3462C44.4699 64.3462 43.9945 64.8216 43.9945 65.4081C43.9945 65.9946 44.4699 66.47 45.0564 66.47Z" fill="#3A3A3A"/>
<path d="M41.367 60.4654C42.0051 60.4654 42.5225 59.948 42.5225 59.3098C42.5225 58.6716 42.0051 58.1543 41.367 58.1543C40.7288 58.1543 40.2114 58.6716 40.2114 59.3098C40.2114 59.948 40.7288 60.4654 41.367 60.4654Z" fill="#3A3A3A"/>
<path d="M37.7143 65.9943C38.2491 65.9943 38.6826 65.5607 38.6826 65.0259C38.6826 64.4911 38.2491 64.0576 37.7143 64.0576C37.1795 64.0576 36.746 64.4911 36.746 65.0259C36.746 65.5607 37.1795 65.9943 37.7143 65.9943Z" fill="#3A3A3A"/>
<path d="M34.0994 70.3175C34.6342 70.3175 35.0678 69.884 35.0678 69.3492C35.0678 68.8144 34.6342 68.3809 34.0994 68.3809C33.5646 68.3809 33.1311 68.8144 33.1311 69.3492C33.1311 69.884 33.5646 70.3175 34.0994 70.3175Z" fill="#3A3A3A"/>
<path d="M30.6333 67.143C31.2675 67.143 31.7817 66.6289 31.7817 65.9946C31.7817 65.3604 31.2675 64.8462 30.6333 64.8462C29.999 64.8462 29.4849 65.3604 29.4849 65.9946C29.4849 66.6289 29.999 67.143 30.6333 67.143Z" fill="#3A3A3A"/>
<path d="M30.6333 63.7519C31.2675 63.7519 31.7817 63.2378 31.7817 62.6035C31.7817 61.9692 31.2675 61.4551 30.6333 61.4551C29.999 61.4551 29.4849 61.9692 29.4849 62.6035C29.4849 63.2378 29.999 63.7519 30.6333 63.7519Z" fill="#3A3A3A"/>
<path d="M26.0495 73.9381C26.9477 73.9381 27.6758 73.21 27.6758 72.3118C27.6758 71.4137 26.9477 70.6855 26.0495 70.6855C25.1513 70.6855 24.4232 71.4137 24.4232 72.3118C24.4232 73.21 25.1513 73.9381 26.0495 73.9381Z" fill="#3A3A3A"/>
<path d="M35.9999 74.4205C36.4235 74.4205 36.7668 74.0771 36.7668 73.6536C36.7668 73.2301 36.4235 72.8867 35.9999 72.8867C35.5764 72.8867 35.233 73.2301 35.233 73.6536C35.233 74.0771 35.5764 74.4205 35.9999 74.4205Z" fill="#3A3A3A"/>
<path d="M31.7817 76.3391C32.0532 76.3391 32.2733 76.119 32.2733 75.8475C32.2733 75.576 32.0532 75.356 31.7817 75.356C31.5102 75.356 31.2902 75.576 31.2902 75.8475C31.2902 76.119 31.5102 76.3391 31.7817 76.3391Z" fill="#3A3A3A"/>
<path d="M35.3315 77.9323C35.603 77.9323 35.8231 77.7122 35.8231 77.4408C35.8231 77.1693 35.603 76.9492 35.3315 76.9492C35.06 76.9492 34.84 77.1693 34.84 77.4408C34.84 77.7122 35.06 77.9323 35.3315 77.9323Z" fill="#3A3A3A"/>
<path d="M39.5102 76.8312C39.7817 76.8312 40.0018 76.6112 40.0018 76.3397C40.0018 76.0682 39.7817 75.8481 39.5102 75.8481C39.2388 75.8481 39.0187 76.0682 39.0187 76.3397C39.0187 76.6112 39.2388 76.8312 39.5102 76.8312Z" fill="#3A3A3A"/>
<path d="M41.2855 76.0481C41.557 76.0481 41.7771 75.828 41.7771 75.5565C41.7771 75.285 41.557 75.0649 41.2855 75.0649C41.014 75.0649 40.7939 75.285 40.7939 75.5565C40.7939 75.828 41.014 76.0481 41.2855 76.0481Z" fill="#3A3A3A"/>
<path d="M43.7727 76.7998C44.1261 76.7998 44.4126 76.5133 44.4126 76.1599C44.4126 75.8065 44.1261 75.52 43.7727 75.52C43.4193 75.52 43.1328 75.8065 43.1328 76.1599C43.1328 76.5133 43.4193 76.7998 43.7727 76.7998Z" fill="#3A3A3A"/>
<path d="M46.5721 70.246C46.758 70.246 46.9088 70.0953 46.9088 69.9094C46.9088 69.7235 46.758 69.5728 46.5721 69.5728C46.3862 69.5728 46.2355 69.7235 46.2355 69.9094C46.2355 70.0953 46.3862 70.246 46.5721 70.246Z" fill="#3A3A3A"/>
<path d="M24.7452 65.7318C25.5514 65.7318 26.205 65.0782 26.205 64.2719C26.205 63.4656 25.5514 62.812 24.7452 62.812C23.9389 62.812 23.2853 63.4656 23.2853 64.2719C23.2853 65.0782 23.9389 65.7318 24.7452 65.7318Z" fill="#3A3A3A"/>
<path d="M20.1794 67.7751C20.7967 67.7751 21.2972 67.2746 21.2972 66.6573C21.2972 66.04 20.7967 65.5396 20.1794 65.5396C19.5621 65.5396 19.0616 66.04 19.0616 66.6573C19.0616 67.2746 19.5621 67.7751 20.1794 67.7751Z" fill="#3A3A3A"/>
<path d="M20.9374 70.9769C21.1194 70.9769 21.267 70.8294 21.267 70.6474C21.267 70.4654 21.1194 70.3179 20.9374 70.3179C20.7554 70.3179 20.6079 70.4654 20.6079 70.6474C20.6079 70.8294 20.7554 70.9769 20.9374 70.9769Z" fill="#3A3A3A"/>
<path d="M24.6269 68.4596C24.8234 68.4596 24.9827 68.3004 24.9827 68.1038C24.9827 67.9073 24.8234 67.748 24.6269 67.748C24.4304 67.748 24.2711 67.9073 24.2711 68.1038C24.2711 68.3004 24.4304 68.4596 24.6269 68.4596Z" fill="#3A3A3A"/>
<path d="M19.7321 62.2404C20.3495 62.2404 20.8499 61.74 20.8499 61.1226C20.8499 60.5053 20.3495 60.0049 19.7321 60.0049C19.1148 60.0049 18.6144 60.5053 18.6144 61.1226C18.6144 61.74 19.1148 62.2404 19.7321 62.2404Z" fill="#3A3A3A"/>
<path d="M23.9996 61.1228C24.5758 61.1228 25.0429 60.6557 25.0429 60.0794C25.0429 59.5032 24.5758 59.0361 23.9996 59.0361C23.4234 59.0361 22.9563 59.5032 22.9563 60.0794C22.9563 60.6557 23.4234 61.1228 23.9996 61.1228Z" fill="#3A3A3A"/>
<path d="M18.465 56.3084C19.1712 56.3084 19.7437 55.7359 19.7437 55.0297C19.7437 54.3235 19.1712 53.751 18.465 53.751C17.7588 53.751 17.1863 54.3235 17.1863 55.0297C17.1863 55.7359 17.7588 56.3084 18.465 56.3084Z" fill="#3A3A3A"/>
<path d="M10.881 60.822C11.7643 60.822 12.4804 60.1059 12.4804 59.2225C12.4804 58.3392 11.7643 57.623 10.881 57.623C9.9976 57.623 9.28149 58.3392 9.28149 59.2225C9.28149 60.1059 9.9976 60.822 10.881 60.822Z" fill="#3A3A3A"/>
<path d="M6.24999 59.5876C6.45164 59.5876 6.6151 59.4242 6.6151 59.2225C6.6151 59.0209 6.45164 58.8574 6.24999 58.8574C6.04835 58.8574 5.88489 59.0209 5.88489 59.2225C5.88489 59.4242 6.04835 59.5876 6.24999 59.5876Z" fill="#3A3A3A"/>
<path d="M4.84326 57.3142C5.0449 57.3142 5.20836 57.1507 5.20836 56.9491C5.20836 56.7475 5.0449 56.584 4.84326 56.584C4.64161 56.584 4.47815 56.7475 4.47815 56.9491C4.47815 57.1507 4.64161 57.3142 4.84326 57.3142Z" fill="#3A3A3A"/>
<path d="M3.94885 54.1184C4.15049 54.1184 4.31395 53.9549 4.31395 53.7533C4.31395 53.5516 4.15049 53.3882 3.94885 53.3882C3.7472 53.3882 3.58374 53.5516 3.58374 53.7533C3.58374 53.9549 3.7472 54.1184 3.94885 54.1184Z" fill="#3A3A3A"/>
<path d="M9.37289 53.5493C9.56879 53.5493 9.7276 53.3904 9.7276 53.1945C9.7276 52.9986 9.56879 52.8398 9.37289 52.8398C9.177 52.8398 9.01819 52.9986 9.01819 53.1945C9.01819 53.3904 9.177 53.5493 9.37289 53.5493Z" fill="#3A3A3A"/>
<path d="M13.3732 65.0315C13.6973 65.0315 13.96 64.7688 13.96 64.4447C13.96 64.1206 13.6973 63.8579 13.3732 63.8579C13.0491 63.8579 12.7864 64.1206 12.7864 64.4447C12.7864 64.7688 13.0491 65.0315 13.3732 65.0315Z" fill="#3A3A3A"/>
<path d="M16.0428 62.8117C16.3143 62.8117 16.5344 62.5916 16.5344 62.3202C16.5344 62.0487 16.3143 61.8286 16.0428 61.8286C15.7713 61.8286 15.5513 62.0487 15.5513 62.3202C15.5513 62.5916 15.7713 62.8117 16.0428 62.8117Z" fill="#3A3A3A"/>
<path d="M4.75022 51.8215C5.63357 51.8215 6.34968 51.1054 6.34968 50.222C6.34968 49.3387 5.63357 48.6226 4.75022 48.6226C3.86686 48.6226 3.15076 49.3387 3.15076 50.222C3.15076 51.1054 3.86686 51.8215 4.75022 51.8215Z" fill="#3A3A3A"/>
<path d="M12.9649 50.5198C13.6662 50.5198 14.2348 49.9513 14.2348 49.2499C14.2348 48.5485 13.6662 47.98 12.9649 47.98C12.2635 47.98 11.6949 48.5485 11.6949 49.2499C11.6949 49.9513 12.2635 50.5198 12.9649 50.5198Z" fill="#3A3A3A"/>
<path d="M18.3128 46.1913C19.0831 46.1913 19.7076 45.5669 19.7076 44.7966C19.7076 44.0263 19.0831 43.4019 18.3128 43.4019C17.5425 43.4019 16.9181 44.0263 16.9181 44.7966C16.9181 45.5669 17.5425 46.1913 18.3128 46.1913Z" fill="#3A3A3A"/>
<path d="M15.3503 39.7065C16.1206 39.7065 16.745 39.082 16.745 38.3117C16.745 37.5414 16.1206 36.917 15.3503 36.917C14.58 36.917 13.9556 37.5414 13.9556 38.3117C13.9556 39.082 14.58 39.7065 15.3503 39.7065Z" fill="#3A3A3A"/>
<path d="M7.52377 34.9343C8.43705 34.9343 9.17742 34.1939 9.17742 33.2806C9.17742 32.3673 8.43705 31.627 7.52377 31.627C6.61048 31.627 5.87012 32.3673 5.87012 33.2806C5.87012 34.1939 6.61048 34.9343 7.52377 34.9343Z" fill="#3A3A3A"/>
<path d="M4.02988 35.9853C4.31193 35.9853 4.54059 35.7566 4.54059 35.4746C4.54059 35.1925 4.31193 34.9639 4.02988 34.9639C3.74782 34.9639 3.51917 35.1925 3.51917 35.4746C3.51917 35.7566 3.74782 35.9853 4.02988 35.9853Z" fill="#3A3A3A"/>
<path d="M6.22377 39.3081C6.56598 39.3081 6.84341 39.0307 6.84341 38.6885C6.84341 38.3463 6.56598 38.0688 6.22377 38.0688C5.88155 38.0688 5.60413 38.3463 5.60413 38.6885C5.60413 39.0307 5.88155 39.3081 6.22377 39.3081Z" fill="#3A3A3A"/>
<path d="M0.689709 39.5508C1.03193 39.5508 1.30935 39.2734 1.30935 38.9312C1.30935 38.5889 1.03193 38.3115 0.689709 38.3115C0.347491 38.3115 0.0700684 38.5889 0.0700684 38.9312C0.0700684 39.2734 0.347491 39.5508 0.689709 39.5508Z" fill="#3A3A3A"/>
<path d="M0.61964 43.4639C0.961858 43.4639 1.23928 43.1865 1.23928 42.8443C1.23928 42.502 0.961858 42.2246 0.61964 42.2246C0.277422 42.2246 0 42.502 0 42.8443C0 43.1865 0.277422 43.4639 0.61964 43.4639Z" fill="#3A3A3A"/>
<path d="M1.92844 46.4543C2.24738 46.4543 2.50594 46.1957 2.50594 45.8768C2.50594 45.5579 2.24738 45.2993 1.92844 45.2993C1.6095 45.2993 1.35095 45.5579 1.35095 45.8768C1.35095 46.1957 1.6095 46.4543 1.92844 46.4543Z" fill="#3A3A3A"/>
<path d="M3.25638 42.045C3.43263 42.045 3.57551 41.9021 3.57551 41.7259C3.57551 41.5496 3.43263 41.4067 3.25638 41.4067C3.08013 41.4067 2.93726 41.5496 2.93726 41.7259C2.93726 41.9021 3.08013 42.045 3.25638 42.045Z" fill="#3A3A3A"/>
<path d="M1.1227 35.8352C1.49183 35.8352 1.79106 35.536 1.79106 35.1669C1.79106 34.7978 1.49183 34.4985 1.1227 34.4985C0.75358 34.4985 0.454346 34.7978 0.454346 35.1669C0.454346 35.536 0.75358 35.8352 1.1227 35.8352Z" fill="#3A3A3A"/>
<path d="M1.79107 30.4557C1.96489 30.4557 2.10581 30.3147 2.10581 30.1409C2.10581 29.9671 1.96489 29.8262 1.79107 29.8262C1.61724 29.8262 1.47632 29.9671 1.47632 30.1409C1.47632 30.3147 1.61724 30.4557 1.79107 30.4557Z" fill="#3A3A3A"/>
<path d="M10.9619 32.1086C11.3207 32.1086 11.6116 31.8177 11.6116 31.4588C11.6116 31.1 11.3207 30.8091 10.9619 30.8091C10.603 30.8091 10.3121 31.1 10.3121 31.4588C10.3121 31.8177 10.603 32.1086 10.9619 32.1086Z" fill="#3A3A3A"/>
<path d="M14.5118 34.3795C14.8204 34.3795 15.0706 34.1293 15.0706 33.8206C15.0706 33.5119 14.8204 33.2617 14.5118 33.2617C14.2031 33.2617 13.9529 33.5119 13.9529 33.8206C13.9529 34.1293 14.2031 34.3795 14.5118 34.3795Z" fill="#3A3A3A"/>
<path d="M12.1076 34.016C12.2696 34.016 12.401 33.8846 12.401 33.7226C12.401 33.5606 12.2696 33.4292 12.1076 33.4292C11.9456 33.4292 11.8142 33.5606 11.8142 33.7226C11.8142 33.8846 11.9456 34.016 12.1076 34.016Z" fill="#3A3A3A"/>
<path d="M19.7081 41.0761C20.0464 41.0761 20.3206 40.8019 20.3206 40.4636C20.3206 40.1253 20.0464 39.8511 19.7081 39.8511C19.3698 39.8511 19.0956 40.1253 19.0956 40.4636C19.0956 40.8019 19.3698 41.0761 19.7081 41.0761Z" fill="#3A3A3A"/>
<path d="M20.7235 41.3894C20.8964 41.3894 21.0366 41.2492 21.0366 41.0763C21.0366 40.9034 20.8964 40.7632 20.7235 40.7632C20.5506 40.7632 20.4104 40.9034 20.4104 41.0763C20.4104 41.2492 20.5506 41.3894 20.7235 41.3894Z" fill="#3A3A3A"/>
<path d="M6.49196 43.927C6.98594 43.927 7.38639 43.5266 7.38639 43.0326C7.38639 42.5386 6.98594 42.1382 6.49196 42.1382C5.99798 42.1382 5.59753 42.5386 5.59753 43.0326C5.59753 43.5266 5.99798 43.927 6.49196 43.927Z" fill="#3A3A3A"/>
<path d="M22.4313 53.3863C23.162 53.3863 23.7543 52.794 23.7543 52.0633C23.7543 51.3326 23.162 50.7402 22.4313 50.7402C21.7006 50.7402 21.1083 51.3326 21.1083 52.0633C21.1083 52.794 21.7006 53.3863 22.4313 53.3863Z" fill="#3A3A3A"/>
<path d="M25.9531 48.6893C26.2936 48.6893 26.5695 48.4133 26.5695 48.0729C26.5695 47.7325 26.2936 47.4565 25.9531 47.4565C25.6127 47.4565 25.3368 47.7325 25.3368 48.0729C25.3368 48.4133 25.6127 48.6893 25.9531 48.6893Z" fill="#3A3A3A"/>
<path d="M27.5504 52.845C27.8908 52.845 28.1668 52.5691 28.1668 52.2287C28.1668 51.8883 27.8908 51.6123 27.5504 51.6123C27.21 51.6123 26.9341 51.8883 26.9341 52.2287C26.9341 52.5691 27.21 52.845 27.5504 52.845Z" fill="#3A3A3A"/>
<path d="M22.4313 47.3637C22.6259 47.3637 22.7838 47.2059 22.7838 47.0112C22.7838 46.8165 22.6259 46.6587 22.4313 46.6587C22.2366 46.6587 22.0787 46.8165 22.0787 47.0112C22.0787 47.2059 22.2366 47.3637 22.4313 47.3637Z" fill="#3A3A3A"/>
<path d="M28.8258 57.6267C29.1898 57.6267 29.4849 57.3316 29.4849 56.9676C29.4849 56.6037 29.1898 56.3086 28.8258 56.3086C28.4618 56.3086 28.1667 56.6037 28.1667 56.9676C28.1667 57.3316 28.4618 57.6267 28.8258 57.6267Z" fill="#3A3A3A"/>
<path d="M16.732 69.1512C17.07 69.1512 17.3439 68.8772 17.3439 68.5392C17.3439 68.2012 17.07 67.9272 16.732 67.9272C16.394 67.9272 16.12 68.2012 16.12 68.5392C16.12 68.8772 16.394 69.1512 16.732 69.1512Z" fill="#3A3A3A"/>
<path d="M59.8445 20.0911C60.5958 20.0911 61.2048 19.4821 61.2048 18.7309C61.2048 17.9796 60.5958 17.3706 59.8445 17.3706C59.0933 17.3706 58.4843 17.9796 58.4843 18.7309C58.4843 19.4821 59.0933 20.0911 59.8445 20.0911Z" fill="#3A3A3A"/>
<path d="M56.4069 23.809C57.0811 23.809 57.6276 23.2625 57.6276 22.5883C57.6276 21.9142 57.0811 21.3677 56.4069 21.3677C55.7328 21.3677 55.1863 21.9142 55.1863 22.5883C55.1863 23.2625 55.7328 23.809 56.4069 23.809Z" fill="#3A3A3A"/>
<path d="M52.1626 30.3894C52.519 30.3894 52.8079 30.1004 52.8079 29.744C52.8079 29.3876 52.519 29.0986 52.1626 29.0986C51.8062 29.0986 51.5172 29.3876 51.5172 29.744C51.5172 30.1004 51.8062 30.3894 52.1626 30.3894Z" fill="#3A3A3A"/>
<path d="M49.9823 25.0993C50.3387 25.0993 50.6277 24.8104 50.6277 24.454C50.6277 24.0975 50.3387 23.8086 49.9823 23.8086C49.6259 23.8086 49.3369 24.0975 49.3369 24.454C49.3369 24.8104 49.6259 25.0993 49.9823 25.0993Z" fill="#3A3A3A"/>
<path d="M46.3487 20.092C46.7052 20.092 46.9941 19.8031 46.9941 19.4466C46.9941 19.0902 46.7052 18.8013 46.3487 18.8013C45.9923 18.8013 45.7034 19.0902 45.7034 19.4466C45.7034 19.8031 45.9923 20.092 46.3487 20.092Z" fill="#3A3A3A"/>
<path d="M52.3093 23.1428C52.5345 23.1428 52.7171 22.9602 52.7171 22.7349C52.7171 22.5097 52.5345 22.3271 52.3093 22.3271C52.0841 22.3271 51.9015 22.5097 51.9015 22.7349C51.9015 22.9602 52.0841 23.1428 52.3093 23.1428Z" fill="#3A3A3A"/>
<path d="M57.3036 27.3144C57.6817 27.3144 57.9883 27.0078 57.9883 26.6296C57.9883 26.2514 57.6817 25.9448 57.3036 25.9448C56.9254 25.9448 56.6188 26.2514 56.6188 26.6296C56.6188 27.0078 56.9254 27.3144 57.3036 27.3144Z" fill="#3A3A3A"/>
<path d="M60.5085 25.1786C60.8867 25.1786 61.1933 24.8721 61.1933 24.4939C61.1933 24.1157 60.8867 23.8091 60.5085 23.8091C60.1303 23.8091 59.8237 24.1157 59.8237 24.4939C59.8237 24.8721 60.1303 25.1786 60.5085 25.1786Z" fill="#3A3A3A"/>
<path d="M62.3346 22.8123C62.5302 22.8123 62.6888 22.6538 62.6888 22.4582C62.6888 22.2626 62.5302 22.104 62.3346 22.104C62.139 22.104 61.9805 22.2626 61.9805 22.4582C61.9805 22.6538 62.139 22.8123 62.3346 22.8123Z" fill="#3A3A3A"/>
<path d="M63.9188 26.0951C64.167 26.0951 64.3682 25.8939 64.3682 25.6457C64.3682 25.3975 64.167 25.1963 63.9188 25.1963C63.6706 25.1963 63.4694 25.3975 63.4694 25.6457C63.4694 25.8939 63.6706 26.0951 63.9188 26.0951Z" fill="#3A3A3A"/>
<path d="M25.3862 8.11084L23.9893 8.91714V10.5303L25.3862 11.3371L26.7831 10.5303V8.91714L25.3862 8.11084ZM25.3862 10.6912C24.8519 10.6912 24.419 10.2582 24.419 9.72398C24.419 9.18974 24.8519 8.75675 25.3862 8.75675C25.9204 8.75675 26.3534 9.18974 26.3534 9.72398C26.3534 10.2582 25.9204 10.6912 25.3862 10.6912Z" fill="#3A3A3A"/>
<path d="M57.6272 10.2466L56.2302 11.0529V12.666L57.6272 13.4729L59.0241 12.666V11.0529L57.6272 10.2466ZM57.6272 12.827C57.0929 12.827 56.6599 12.394 56.6599 11.8597C56.6599 11.3255 57.0929 10.8925 57.6272 10.8925C58.1614 10.8925 58.5944 11.3255 58.5944 11.8597C58.5944 12.394 58.1614 12.827 57.6272 12.827Z" fill="#3A3A3A"/>
<path d="M11.3906 42.0454L10.3101 42.6694V43.9175L11.3906 44.5415L12.4711 43.9175V42.6694L11.3906 42.0454ZM11.3906 44.0423C10.9773 44.0423 10.6423 43.7073 10.6423 43.294C10.6423 42.8807 10.9773 42.5457 11.3906 42.5457C11.8039 42.5457 12.1389 42.8807 12.1389 43.294C12.1389 43.7073 11.8039 44.0423 11.3906 44.0423Z" fill="#3A3A3A"/>
<path d="M58.7082 43.4927L57.7996 44.0171V45.0659L58.7082 45.5908L59.6169 45.0659V44.0171L58.7082 43.4927ZM58.7082 45.171C58.3606 45.171 58.0793 44.8896 58.0793 44.542C58.0793 44.1944 58.3606 43.9131 58.7082 43.9131C59.0558 43.9131 59.3372 44.1944 59.3372 44.542C59.3372 44.8896 59.0558 45.171 58.7082 45.171Z" fill="#3A3A3A"/>
<path d="M71.4432 41.3525L70.4081 41.9503V43.1458L71.4432 43.7435L72.4783 43.1458V41.9503L71.4432 41.3525ZM71.4432 43.2646C71.0474 43.2646 70.7267 42.9438 70.7267 42.548C70.7267 42.1523 71.0474 41.8315 71.4432 41.8315C71.8389 41.8315 72.1597 42.1523 72.1597 42.548C72.1597 42.9438 71.8389 43.2646 71.4432 43.2646Z" fill="#3A3A3A"/>
<path d="M7.92453 45.877L6.84399 46.501V47.749L7.92453 48.373L9.00507 47.749V46.501L7.92453 45.877ZM7.92453 47.8738C7.51126 47.8738 7.17626 47.5388 7.17626 47.1255C7.17626 46.7123 7.51126 46.3773 7.92453 46.3773C8.33781 46.3773 8.67281 46.7123 8.67281 47.1255C8.67281 47.5388 8.33781 47.8738 7.92453 47.8738Z" fill="#3A3A3A"/>
<path d="M23.7544 43.6919L22.9246 44.1709V45.1288L23.7544 45.6077L24.5842 45.1288V44.1709L23.7544 43.6919ZM23.7544 45.224C23.4369 45.224 23.1802 44.9668 23.1802 44.6498C23.1802 44.3329 23.4375 44.0756 23.7544 44.0756C24.0713 44.0756 24.3286 44.3329 24.3286 44.6498C24.3286 44.9668 24.0713 45.224 23.7544 45.224Z" fill="#3A3A3A"/>
</g>
<rect x="0.5" y="0.5" width="81.2036" height="76.9324" stroke="black"/>
<defs>
<clipPath id="clip0_292_2144">
<rect width="82.2036" height="77.9324" fill="white"/>
</clipPath>
</defs>
</svg>
